REM DIRINDEX 1\3,1\2\4,1\2\5,1\2\6
REM DIRNAME cjc137,folder01,folder02,folder03,folder04,folder05
TITLE ""
FILE "026.mp3" MP3
  TRACK 01 AUDIO
    TITLE "4:cjc137_1053"
    INDEX 01 00:00:00
  TRACK 02 AUDIO
    TITLE "0:"
    INDEX 01 00:00:74
  TRACK 03 AUDIO
    TITLE "6:cjc137_1054"
    INDEX 01 00:01:05
  TRACK 04 AUDIO
    TITLE "0:"
    INDEX 01 00:02:16
  TRACK 05 AUDIO
    TITLE "5:cjc137_1055"
    INDEX 01 00:02:20
  TRACK 06 AUDIO
    TITLE "0:"
    INDEX 01 00:03:19
  TRACK 07 AUDIO
    TITLE "4:cjc137_1056"
    INDEX 01 00:04:25
  TRACK 08 AUDIO
    TITLE "0:"
    INDEX 01 00:05:28
  TRACK 09 AUDIO
    TITLE "6:cjc137_1057"
    INDEX 01 00:05:42
  TRACK 10 AUDIO
    TITLE "0:"
    INDEX 01 00:06:37
  TRACK 11 AUDIO
    TITLE "5:cjc137_1058"
    INDEX 01 00:06:43
  TRACK 12 AUDIO
    TITLE "0:"
    INDEX 01 00:07:45
  TRACK 13 AUDIO
    TITLE "4:cjc137_1059"
    INDEX 01 00:08:60
  TRACK 14 AUDIO
    TITLE "0:"
    INDEX 01 00:09:63
  TRACK 15 AUDIO
    TITLE "6:cjc137_1060"
    INDEX 01 00:09:73
  TRACK 16 AUDIO
    TITLE "0:"
    INDEX 01 00:10:74
  TRACK 17 AUDIO
    TITLE "5:cjc137_1061"
    INDEX 01 00:11:05
  TRACK 18 AUDIO
    TITLE "0:"
    INDEX 01 00:12:07
  TRACK 19 AUDIO
    TITLE "4:cjc137_1062"
    INDEX 01 00:13:20
  TRACK 20 AUDIO
    TITLE "0:"
    INDEX 01 00:14:21
  TRACK 21 AUDIO
    TITLE "6:cjc137_1063"
    INDEX 01 00:14:27
  TRACK 22 AUDIO
    TITLE "0:"
    INDEX 01 00:15:19
  TRACK 23 AUDIO
    TITLE "5:cjc137_1064"
    INDEX 01 00:15:27
  TRACK 24 AUDIO
    TITLE "0:"
    INDEX 01 00:16:28
  TRACK 25 AUDIO
    TITLE "4:cjc137_1065"
    INDEX 01 00:17:35
  TRACK 26 AUDIO
    TITLE "0:"
    INDEX 01 00:18:50
  TRACK 27 AUDIO
    TITLE "6:cjc137_1066"
    INDEX 01 00:18:58
  TRACK 28 AUDIO
    TITLE "0:"
    INDEX 01 00:19:63
  TRACK 29 AUDIO
    TITLE "5:cjc137_1067"
    INDEX 01 00:19:69
  TRACK 30 AUDIO
    TITLE "0:"
    INDEX 01 00:21:06
  TRACK 31 AUDIO
    TITLE "4:cjc137_1068"
    INDEX 01 00:22:17
  TRACK 32 AUDIO
    TITLE "0:"
    INDEX 01 00:23:20
  TRACK 33 AUDIO
    TITLE "6:cjc137_1069"
    INDEX 01 00:23:32
  TRACK 34 AUDIO
    TITLE "0:"
    INDEX 01 00:24:41
  TRACK 35 AUDIO
    TITLE "5:cjc137_1070"
    INDEX 01 00:24:49
  TRACK 36 AUDIO
    TITLE "0:"
    INDEX 01 00:25:52
  TRACK 37 AUDIO
    TITLE "4:cjc137_1071"
    INDEX 01 00:26:64
  TRACK 38 AUDIO
    TITLE "0:"
    INDEX 01 00:28:06
  TRACK 39 AUDIO
    TITLE "6:cjc137_1072"
    INDEX 01 00:28:12
  TRACK 40 AUDIO
    TITLE "0:"
    INDEX 01 00:29:27
  TRACK 41 AUDIO
    TITLE "5:cjc137_1073"
    INDEX 01 00:29:31
  TRACK 42 AUDIO
    TITLE "0:"
    INDEX 01 00:30:46
  TRACK 43 AUDIO
    TITLE "4:cjc137_1074"
    INDEX 01 00:31:53
  TRACK 44 AUDIO
    TITLE "0:"
    INDEX 01 00:32:52
  TRACK 45 AUDIO
    TITLE "6:cjc137_1075"
    INDEX 01 00:32:62
  TRACK 46 AUDIO
    TITLE "0:"
    INDEX 01 00:33:69
  TRACK 47 AUDIO
    TITLE "5:cjc137_1076"
    INDEX 01 00:34:02
  TRACK 48 AUDIO
    TITLE "0:"
    INDEX 01 00:35:02
  TRACK 49 AUDIO
    TITLE "4:cjc137_1077"
    INDEX 01 00:36:09
  TRACK 50 AUDIO
    TITLE "0:"
    INDEX 01 00:37:22
  TRACK 51 AUDIO
    TITLE "6:cjc137_1078"
    INDEX 01 00:37:28
  TRACK 52 AUDIO
    TITLE "0:"
    INDEX 01 00:38:67
  TRACK 53 AUDIO
    TITLE "5:cjc137_1079"
    INDEX 01 00:38:73
  TRACK 54 AUDIO
    TITLE "0:"
    INDEX 01 00:40:13
  TRACK 55 AUDIO
    TITLE "4:cjc137_1080"
    INDEX 01 00:41:20
  TRACK 56 AUDIO
    TITLE "0:"
    INDEX 01 00:42:29
  TRACK 57 AUDIO
    TITLE "6:cjc137_1081"
    INDEX 01 00:42:37
  TRACK 58 AUDIO
    TITLE "0:"
    INDEX 01 00:44:09
  TRACK 59 AUDIO
    TITLE "5:cjc137_1082"
    INDEX 01 00:44:18
  TRACK 60 AUDIO
    TITLE "0:"
    INDEX 01 00:45:26
  TRACK 61 AUDIO
    TITLE "4:cjc137_1083"
    INDEX 01 00:46:35
  TRACK 62 AUDIO
    TITLE "0:"
    INDEX 01 00:47:44
  TRACK 63 AUDIO
    TITLE "6:cjc137_1084"
    INDEX 01 00:47:56
  TRACK 64 AUDIO
    TITLE "0:"
    INDEX 01 00:48:63
  TRACK 65 AUDIO
    TITLE "5:cjc137_1085"
    INDEX 01 00:48:69
  TRACK 66 AUDIO
    TITLE "0:"
    INDEX 01 00:50:05
  TRACK 67 AUDIO
    TITLE "4:cjc137_1086"
    INDEX 01 00:51:16
  TRACK 68 AUDIO
    TITLE "0:"
    INDEX 01 00:52:08
  TRACK 69 AUDIO
    TITLE "6:cjc137_1087"
    INDEX 01 00:52:32
  TRACK 70 AUDIO
    TITLE "0:"
    INDEX 01 00:53:35
  TRACK 71 AUDIO
    TITLE "5:cjc137_1088"
    INDEX 01 00:53:43
  TRACK 72 AUDIO
    TITLE "0:"
    INDEX 01 00:54:34
  TRACK 73 AUDIO
    TITLE "4:cjc137_1089"
    INDEX 01 00:55:57
  TRACK 74 AUDIO
    TITLE "0:"
    INDEX 01 00:57:03
  TRACK 75 AUDIO
    TITLE "6:cjc137_1090"
    INDEX 01 00:57:11
  TRACK 76 AUDIO
    TITLE "0:"
    INDEX 01 00:58:13
  TRACK 77 AUDIO
    TITLE "5:cjc137_1091"
    INDEX 01 00:58:22
  TRACK 78 AUDIO
    TITLE "0:"
    INDEX 01 00:59:41
  TRACK 79 AUDIO
    TITLE "4:cjc137_1092"
    INDEX 01 01:00:49
  TRACK 80 AUDIO
    TITLE "0:"
    INDEX 01 01:01:62
  TRACK 81 AUDIO
    TITLE "6:cjc137_1093"
    INDEX 01 01:01:70
  TRACK 82 AUDIO
    TITLE "0:"
    INDEX 01 01:03:08
  TRACK 83 AUDIO
    TITLE "5:cjc137_1094"
    INDEX 01 01:03:18
  TRACK 84 AUDIO
    TITLE "0:"
    INDEX 01 01:04:31
